<svg width="24" height="24" viewBox="0 0 24 24" fill="none" xmlns="http://www.w3.org/2000/svg">
<path d="M20.6429 23H3.35714C2.05531 23 1 21.9447 1 20.6429V3.35714C1 2.05531 2.05531 1 3.35714 1H20.6429C21.9447 1 23 2.05531 23 3.35714V20.6429C23 21.9447 21.9447 23 20.6429 23ZM10.5913 18.1846L19.627 9.14889C19.9338 8.84207 19.9338 8.34456 19.627 8.03774L18.5159 6.92659C18.2091 6.61977 17.7116 6.61972 17.4047 6.92659L10.0357 14.2955L6.59532 10.8551C6.2885 10.5483 5.79099 10.5483 5.48412 10.8551L4.37297 11.9663C4.06615 12.2731 4.06615 12.7706 4.37297 13.0774L9.48012 18.1846C9.78699 18.4915 10.2844 18.4915 10.5913 18.1846Z" fill="#00A970"/>
</svg>
