<svg width="40" height="40" viewBox="0 0 40 40" fill="none" xmlns="http://www.w3.org/2000/svg">
<rect x="0.5" y="0.5" width="39" height="39" rx="19.5" fill="white"/>
<rect x="0.5" y="0.5" width="39" height="39" rx="19.5" stroke="#CAA972"/>
<path d="M10.128 23.734C9.67173 20.7685 9.2155 17.8031 8.75928 14.8376C8.6581 14.1802 9.40608 13.7319 9.93813 14.131C11.3595 15.197 12.7809 16.263 14.2023 17.329C14.6703 17.68 15.337 17.5658 15.6615 17.0791L19.2114 11.7541C19.5866 11.1914 20.4134 11.1914 20.7885 11.7541L24.3385 17.0791C24.663 17.5658 25.3297 17.68 25.7977 17.329C27.2191 16.263 28.6404 15.197 30.0618 14.131C30.5939 13.7319 31.3419 14.1802 31.2408 14.8376C30.7845 17.8031 30.3283 20.7685 29.8721 23.734H10.128Z" fill="#CAA972"/>
<path d="M28.8426 28.6695H11.1573C10.5888 28.6695 10.1279 28.2087 10.1279 27.6402V25.3789H29.8721V27.6402C29.872 28.2087 29.4111 28.6695 28.8426 28.6695Z" fill="#CAA972"/>
</svg>
