<svg width="20" height="20" viewBox="0 0 20 20" fill="none" xmlns="http://www.w3.org/2000/svg">
<path fill-rule="evenodd" clip-rule="evenodd" d="M1.66663 10.0013C1.66663 14.6037 5.39759 18.3346 9.99996 18.3346C14.6023 18.3346 18.3333 14.6037 18.3333 10.0013C18.3333 5.39893 14.6023 1.66797 9.99996 1.66797C5.39759 1.66797 1.66663 5.39893 1.66663 10.0013ZM9.99996 14.168C9.76984 14.168 9.56151 14.0747 9.4107 13.9239L5.87517 10.3884C5.54973 10.0629 5.54973 9.53528 5.87517 9.20985C6.20061 8.88441 6.72824 8.88441 7.05368 9.20985L9.16663 11.3228V6.66797C9.16663 6.20773 9.53972 5.83464 9.99996 5.83464C10.4602 5.83464 10.8333 6.20773 10.8333 6.66797V11.3228L12.9462 9.20985C13.2717 8.88441 13.7993 8.88441 14.1247 9.20985C14.4502 9.53528 14.4502 10.0629 14.1247 10.3884L10.5892 13.9239C10.4384 14.0747 10.2301 14.168 9.99996 14.168Z" fill="#F17221"/>
</svg>
