<svg width="20" height="20" viewBox="0 0 20 20" fill="none" xmlns="http://www.w3.org/2000/svg">
<path fill-rule="evenodd" clip-rule="evenodd" d="M1.66663 10.0013C1.66663 14.6037 5.39759 18.3346 9.99996 18.3346C14.6023 18.3346 18.3333 14.6037 18.3333 10.0013C18.3333 5.39893 14.6023 1.66797 9.99996 1.66797C5.39759 1.66797 1.66663 5.39893 1.66663 10.0013ZM9.99996 5.83464C10.2301 5.83464 10.4384 5.92791 10.5892 6.07871L14.1247 9.61425C14.4502 9.93968 14.4502 10.4673 14.1247 10.7928C13.7993 11.1182 13.2717 11.1182 12.9462 10.7928L10.8333 8.67981V13.3346C10.8333 13.7949 10.4602 14.168 9.99996 14.168C9.53972 14.168 9.16663 13.7949 9.16663 13.3346V8.67981L7.05368 10.7928C6.72824 11.1182 6.20061 11.1182 5.87517 10.7928C5.54973 10.4673 5.54973 9.93968 5.87517 9.61425L9.4107 6.07871C9.56151 5.92791 9.76984 5.83464 9.99996 5.83464Z" fill="#00A970"/>
</svg>
