<svg width="24" height="24" viewBox="0 0 24 24" fill="none" xmlns="http://www.w3.org/2000/svg">
<path fill-rule="evenodd" clip-rule="evenodd" d="M10.8001 1.65C11.5112 1.11667 12.4889 1.11667 13.2001 1.65L22.6001 8.7C23.0419 9.03137 23.1314 9.65817 22.8001 10.1C22.4687 10.5418 21.8419 10.6314 21.4001 10.3L12.3001 3.475C12.1223 3.34167 11.8778 3.34167 11.7001 3.475L2.60006 10.3C2.15823 10.6314 1.53143 10.5418 1.20006 10.1C0.868688 9.65817 0.958231 9.03137 1.40006 8.7L10.8001 1.65Z" fill="#1C211F"/>
<path fill-rule="evenodd" clip-rule="evenodd" d="M11.7 5.475C11.8778 5.34167 12.1222 5.34167 12.3 5.475L20.4 11.55C20.7777 11.8333 21 12.2779 21 12.75V18.5C21 20.433 19.433 22 17.5 22H15.5C15.2239 22 15 21.7761 15 21.5V17C15 15.8954 14.1046 15 13 15H11C9.89543 15 9 15.8954 9 17V21.5C9 21.7761 8.77614 22 8.5 22H6.5C4.567 22 3 20.433 3 18.5V12.75C3 12.2779 3.22229 11.8333 3.6 11.55L11.7 5.475Z" fill="#1C211F"/>
</svg>
