<svg width="24" height="24" viewBox="0 0 24 24" fill="none" xmlns="http://www.w3.org/2000/svg">
<path fill-rule="evenodd" clip-rule="evenodd" d="M4 10C4 5.58172 7.58172 2 12 2C16.4183 2 20 5.58172 20 10V10.5C20 12.3391 19.4035 14.1287 18.3 15.6L17.3117 16.9177C16.9426 17.4099 16.5391 17.8752 16.1041 18.3101L12 22.4142L7.89592 18.3101C7.46095 17.8752 7.0574 17.4099 6.68831 16.9177L5.7 15.6C4.59651 14.1287 4 12.3391 4 10.5V10ZM12 4C8.68629 4 6 6.68629 6 10V10.5C6 11.9064 6.45616 13.2749 7.3 14.4L8.28831 15.7177C8.60062 16.1342 8.94208 16.5279 9.31014 16.8959L12 19.5858L14.6899 16.8959C15.0579 16.5279 15.3994 16.1342 15.7117 15.7177L16.7 14.4C17.5438 13.2749 18 11.9064 18 10.5V10C18 6.68629 15.3137 4 12 4Z" fill="#1C211F"/>
<path fill-rule="evenodd" clip-rule="evenodd" d="M12 8C10.8954 8 10 8.89543 10 10C10 11.1046 10.8954 12 12 12C13.1046 12 14 11.1046 14 10C14 8.89543 13.1046 8 12 8ZM8 10C8 7.79086 9.79086 6 12 6C14.2091 6 16 7.79086 16 10C16 12.2091 14.2091 14 12 14C9.79086 14 8 12.2091 8 10Z" fill="#1C211F"/>
</svg>
