<svg width="24" height="24" viewBox="0 0 24 24" fill="none" xmlns="http://www.w3.org/2000/svg">
<path fill-rule="evenodd" clip-rule="evenodd" d="M5 2C3.81142 2 2.78428 2.69121 2.29863 3.69359C2.11013 3.99703 2 4.35653 2 4.74662V19.3957C2 20.8018 2.9766 22.0192 4.34921 22.3242L9.34921 23.4353C10.6873 23.7327 11.9762 23.0905 12.6037 22H14C15.6569 22 17 20.6569 17 19V18C17 17.4477 16.5523 17 16 17C15.4477 17 15 17.4477 15 18V19C15 19.5523 14.5523 20 14 20H13V7.10434C13 5.69825 12.0234 4.48081 10.6508 4.17578L9.85977 4H14C14.5523 4 15 4.44772 15 5V6C15 6.55228 15.4477 7 16 7C16.5523 7 17 6.55228 17 6V5C17 3.34315 15.6569 2 14 2H5ZM4 5C4 4.91491 4.01063 4.8323 4.03063 4.75342L10.2169 6.12816C10.6745 6.22983 11 6.63564 11 7.10434V20.5068C11 21.1465 10.4076 21.6217 9.78307 21.483L4.78307 20.3718C4.32553 20.2702 4 19.8644 4 19.3957V5Z" fill="#1C211F"/>
<path fill-rule="evenodd" clip-rule="evenodd" d="M17.7929 8.29289C18.1834 7.90237 18.8166 7.90237 19.2071 8.29289L22.2071 11.2929C22.5976 11.6834 22.5976 12.3166 22.2071 12.7071L19.2071 15.7071C18.8166 16.0976 18.1834 16.0976 17.7929 15.7071C17.4024 15.3166 17.4024 14.6834 17.7929 14.2929L19.0858 13H15C14.4477 13 14 12.5523 14 12C14 11.4477 14.4477 11 15 11H19.0858L17.7929 9.70711C17.4024 9.31658 17.4024 8.68342 17.7929 8.29289Z" fill="#1C211F"/>
</svg>
