<svg width="24" height="24" viewBox="0 0 24 24" fill="none" xmlns="http://www.w3.org/2000/svg">
<path fill-rule="evenodd" clip-rule="evenodd" d="M2 12.0001C2 15.3138 6.95815 18.0075 12 18.0001C17.0419 17.9926 22 15.3138 22 12.0001C22 8.68637 17.0157 6.0175 12 6.00008C6.98429 5.98267 2 8.68637 2 12.0001ZM11.9931 8.00007L11.9967 8.00008C9.78908 8.00186 8 9.79204 8 12.0001C8 14.2087 9.79003 15.9993 11.9985 16.0001L11.997 16.0001C7.75377 16.0064 4 13.8247 4 12.0001C4 10.178 7.77473 7.98543 11.9931 8.00007ZM11.998 14.0001L11.9985 16.0001H12L11.9992 14.0001C11.9995 14.0001 11.9997 14.0001 12 14.0001C13.1046 14.0001 14 13.1047 14 12.0001C14 10.8955 13.1046 10.0001 12 10.0001C11.9992 10.0001 11.9984 10.0001 11.9975 10.0001L11.9967 8.00008L12.0521 8.00042C14.2372 8.02831 16 9.80834 16 12.0001C16 14.2012 14.2221 15.9871 12.0239 16C16.2679 15.9846 20 13.8154 20 12.0001C20 10.199 16.2739 8.03499 12.0521 8.00042C12.0348 8.00019 12.0174 8.00008 12 8.00008L11.9967 8.00008L11.9972 10.0001C10.8939 10.0016 10 10.8965 10 12.0001C10 13.104 10.8944 13.999 11.998 14.0001Z" fill="#A0A2A1"/>
</svg>
