<svg width="24" height="24" viewBox="0 0 24 24" fill="none" xmlns="http://www.w3.org/2000/svg">
<path d="M18 7H16V3.875C16 2.83945 15.1046 2 14 2H10C8.89542 2 8 2.83945 8 3.875V7H6C4.89542 7 4 7.83945 4 8.875V18.875C4 19.9105 4.89542 20.75 6 20.75H6.66667V21.375C6.66667 21.7203 6.965 22 7.33333 22H8.66667C9.035 22 9.33333 21.7203 9.33333 21.375V20.75H14.6667V21.375C14.6667 21.7203 14.965 22 15.3333 22H16.6667C17.035 22 17.3333 21.7203 17.3333 21.375V20.75H18C19.1046 20.75 20 19.9105 20 18.875V8.875C20 7.83945 19.1046 7 18 7ZM10 3.875H14V7H10V3.875ZM18 18.875H6V8.875H18V18.875ZM8.33333 17H15.6667C15.8508 17 16 16.8602 16 16.6875V15.4375C16 15.2648 15.8508 15.125 15.6667 15.125H8.33333C8.14917 15.125 8 15.2648 8 15.4375V16.6875C8 16.8602 8.14917 17 8.33333 17ZM8.33333 12.625H15.6667C15.8508 12.625 16 12.4852 16 12.3125V11.0625C16 10.8898 15.8508 10.75 15.6667 10.75H8.33333C8.14917 10.75 8 10.8898 8 11.0625V12.3125C8 12.4852 8.14917 12.625 8.33333 12.625Z" fill="#1C211F"/>
</svg>
