<svg width="40" height="40" viewBox="0 0 40 40" fill="none" xmlns="http://www.w3.org/2000/svg">
<rect width="40" height="40" rx="20" fill="#F9FAFC"/>
<path d="M23 24H17C16.7348 24 16.4804 24.1054 16.2929 24.2929C16.1054 24.4804 16 24.7348 16 25C16 25.2652 16.1054 25.5196 16.2929 25.7071C16.4804 25.8946 16.7348 26 17 26H23C23.2652 26 23.5196 25.8946 23.7071 25.7071C23.8946 25.5196 24 25.2652 24 25C24 24.7348 23.8946 24.4804 23.7071 24.2929C23.5196 24.1054 23.2652 24 23 24Z" fill="#00A970"/>
<path d="M17 22H20C20.2652 22 20.5196 21.8946 20.7071 21.7071C20.8946 21.5196 21 21.2652 21 21C21 20.7348 20.8946 20.4804 20.7071 20.2929C20.5196 20.1054 20.2652 20 20 20H17C16.7348 20 16.4804 20.1054 16.2929 20.2929C16.1054 20.4804 16 20.7348 16 21C16 21.2652 16.1054 21.5196 16.2929 21.7071C16.4804 21.8946 16.7348 22 17 22Z" fill="#00A970"/>
<path d="M27.74 16.3302L22.3 10.3302C22.2065 10.2266 22.0924 10.1437 21.9649 10.0869C21.8375 10.03 21.6995 10.0005 21.56 10.0002H14.56C14.2277 9.99622 13.898 10.0577 13.5895 10.1812C13.281 10.3047 12.9999 10.4878 12.7622 10.7199C12.5245 10.9521 12.3348 11.2288 12.204 11.5342C12.0732 11.8397 12.0039 12.1679 12 12.5002V27.5002C12.0039 27.8324 12.0732 28.1607 12.204 28.4661C12.3348 28.7716 12.5245 29.0483 12.7622 29.2804C12.9999 29.5126 13.281 29.6956 13.5895 29.8191C13.898 29.9426 14.2277 30.0041 14.56 30.0002H25.44C25.7723 30.0041 26.102 29.9426 26.4105 29.8191C26.719 29.6956 27.0001 29.5126 27.2378 29.2804C27.4755 29.0483 27.6652 28.7716 27.796 28.4661C27.9268 28.1607 27.9961 27.8324 28 27.5002V17.0002C27.9994 16.7523 27.9067 16.5136 27.74 16.3302ZM22 13.0002L24.74 16.0002H22.74C22.6353 15.9939 22.5329 15.9667 22.4387 15.9204C22.3446 15.8741 22.2607 15.8095 22.1918 15.7303C22.1229 15.6512 22.0704 15.5592 22.0375 15.4596C22.0046 15.3599 21.9918 15.2548 22 15.1502V13.0002ZM25.44 28.0002H14.56C14.4904 28.0042 14.4206 27.9945 14.3548 27.9715C14.2889 27.9486 14.2282 27.9129 14.1762 27.8664C14.1242 27.82 14.0818 27.7637 14.0516 27.7009C14.0214 27.638 14.0038 27.5698 14 27.5002V12.5002C14.0038 12.4305 14.0214 12.3623 14.0516 12.2995C14.0818 12.2366 14.1242 12.1804 14.1762 12.1339C14.2282 12.0875 14.2889 12.0518 14.3548 12.0288C14.4206 12.0059 14.4904 11.9961 14.56 12.0002H20V15.1502C19.9839 15.8868 20.2598 16.5999 20.7675 17.1339C21.2752 17.6678 21.9735 17.9792 22.71 18.0002H26V27.5002C25.9962 27.5698 25.9786 27.638 25.9484 27.7009C25.9182 27.7637 25.8758 27.82 25.8238 27.8664C25.7718 27.9129 25.7111 27.9486 25.6452 27.9715C25.5794 27.9945 25.5096 28.0042 25.44 28.0002Z" fill="#00A970"/>
</svg>
