<svg width="24" height="24" viewBox="0 0 24 24" fill="none" xmlns="http://www.w3.org/2000/svg">
<path fill-rule="evenodd" clip-rule="evenodd" d="M10.8 1.65C11.157 1.38229 11.5811 1.24895 12.005 1.25001C12.4256 1.25104 12.8459 1.38437 13.2001 1.65L22.6001 8.7C23.0419 9.03137 23.1314 9.65817 22.8001 10.1C22.4687 10.5418 21.8419 10.6314 21.4001 10.3L21 9.99996V18C21 20.2091 19.2091 22 17 22H16H8H7C4.79086 22 3 20.2091 3 18V10L2.60006 10.3C2.15823 10.6314 1.53143 10.5418 1.20006 10.1C0.868688 9.65817 0.958231 9.03137 1.40006 8.7L10.8 1.65ZM10 20H14V16C14 15.4477 13.5523 15 13 15H11C10.4477 15 10 15.4477 10 16V20ZM16 20V16C16 14.3431 14.6569 13 13 13H11C9.34315 13 8 14.3431 8 16V20H7C5.89543 20 5 19.1046 5 18V9.00004C5 8.68529 5.14819 8.3889 5.4 8.20004L11.7001 3.475C11.8762 3.34287 12.1179 3.34168 12.2952 3.47143L18.6 8.2C18.8518 8.38885 19 8.68524 19 9V18C19 19.1046 18.1046 20 17 20H16Z" fill="#1C211F"/>
</svg>
