<svg width="24" height="24" viewBox="0 0 24 24" fill="none" xmlns="http://www.w3.org/2000/svg">
<path fill-rule="evenodd" clip-rule="evenodd" d="M12 3C11.337 3 10.7011 3.26339 10.2322 3.73223C9.76339 4.20107 9.5 4.83696 9.5 5.5C9.5 6.16304 9.76339 6.79893 10.2322 7.26777C10.7011 7.73661 11.337 8 12 8C12.663 8 13.2989 7.73661 13.7678 7.26777C14.2366 6.79893 14.5 6.16304 14.5 5.5C14.5 4.83696 14.2366 4.20107 13.7678 3.73223C13.2989 3.26339 12.663 3 12 3ZM8.81802 2.31802C9.66193 1.47411 10.8065 1 12 1C13.1935 1 14.3381 1.47411 15.182 2.31802C16.0259 3.16193 16.5 4.30653 16.5 5.5C16.5 6.69347 16.0259 7.83807 15.182 8.68198C14.3381 9.52589 13.1935 10 12 10C10.8065 10 9.66193 9.52589 8.81802 8.68198C7.97411 7.83807 7.5 6.69347 7.5 5.5C7.5 4.30653 7.97411 3.16193 8.81802 2.31802Z" fill="black"/>
<path fill-rule="evenodd" clip-rule="evenodd" d="M12 13C10.4087 13 8.88257 13.6321 7.75736 14.7574C6.74133 15.7734 6.12714 17.1219 6.01768 18.5418C7.84957 19.4912 9.89856 20 12 20C14.1014 20 16.1504 19.4912 17.9823 18.5418C17.8729 17.1219 17.2587 15.7734 16.2426 14.7574C15.1174 13.6321 13.5913 13 12 13ZM6.34314 13.3431C7.84343 11.8429 9.87826 11 12 11C14.1217 11 16.1566 11.8429 17.6568 13.3431C19.1912 14.8775 20.0374 16.9773 19.9987 19.1429C19.9925 19.4938 19.8027 19.8157 19.4988 19.9911C17.2382 21.2959 14.6554 22 12 22C9.34457 22 6.76175 21.2959 4.50121 19.9911C4.19727 19.8157 4.00753 19.4938 4.00127 19.1429C3.96262 16.9773 4.80878 14.8775 6.34314 13.3431Z" fill="black"/>
</svg>
