<svg width="24" height="24" viewBox="0 0 24 24" fill="none" xmlns="http://www.w3.org/2000/svg">
<path fill-rule="evenodd" clip-rule="evenodd" d="M5.20583 2H18.7884C19.4646 2.0006 20.1116 2.2726 20.5863 2.75266L20.587 2.7534C20.7179 2.88562 20.8516 3.01643 20.9855 3.14747C21.7142 3.86061 22.4498 4.58045 22.7823 5.57024C22.9825 6.16615 23.0443 6.8003 22.9632 7.42384C22.8599 8.21762 22.5317 8.96024 22 9.58608V20C22.5523 20 23 20.4477 23 21C23 21.5523 22.5523 22 22 22H16H8H2C1.44772 22 1 21.5523 1 21C1 20.4477 1.44772 20 2 20V9.58686C1.48128 8.98175 1.13859 8.22081 1.03469 7.42245C0.953611 6.79948 1.01509 6.1659 1.2146 5.57035C1.41413 4.97477 1.74658 4.43252 2.18716 3.9858L3.40727 2.7534C3.8831 2.27199 4.54382 2.00059 5.20583 2ZM10 20H14V16C14 15.4477 13.5523 15 13 15H11C10.4477 15 10 15.4477 10 16V20ZM16 20V16C16 14.3431 14.6569 13 13 13H11C9.34315 13 8 14.3431 8 16V20H4V10.855C4.56116 11.0093 5.15283 11.0421 5.73528 10.9455C6.33082 10.8468 6.89218 10.617 7.38202 10.2778C8.05422 10.7433 8.86893 10.9996 9.69042 10.9987C10.5478 10.9986 11.3424 10.7311 11.9972 10.2771C12.6694 10.7428 13.4842 10.9994 14.3058 10.9987C15.1635 10.9986 15.9583 10.7309 16.6133 10.2766C17.1033 10.6156 17.6648 10.8454 18.2604 10.944C18.8444 11.0406 19.4376 11.0073 20 10.8518V20H16ZM18.587 8.97081C19.3846 9.10282 20.2013 8.73716 20.6451 8.06574C21.1925 7.2375 21.0846 6.09911 20.3855 5.39258C20.2932 5.29939 20.1846 5.16639 20.0644 5.01915C19.7015 4.57477 19.2327 4.00069 18.7879 4H5.20637C4.7622 4.00069 4.29427 4.57357 3.93188 5.01725C3.81181 5.16424 3.70334 5.29706 3.61114 5.39018C2.91346 6.09821 2.80559 7.23562 3.35247 8.06459C3.79492 8.73526 4.61413 9.10409 5.40816 8.97244C5.87879 8.89442 6.31035 8.6539 6.62863 8.289C6.81861 8.07118 7.09354 7.94622 7.38257 7.94632C7.6716 7.94641 7.94645 8.07156 8.13629 8.28949C8.52673 8.73773 9.10326 8.99946 9.68867 8.99872L9.68994 8.99872C10.3058 8.99872 10.8605 8.7271 11.2444 8.28751C11.4345 8.06983 11.7095 7.94504 11.9985 7.94528C12.2875 7.94553 12.5622 8.07079 12.752 8.28879C13.1423 8.73728 13.7188 8.99929 14.3044 8.99872C14.9202 8.99872 15.4759 8.7271 15.8598 8.28751C16.0498 8.07001 16.3244 7.94524 16.6132 7.94528C16.9019 7.94533 17.1766 8.07019 17.3665 8.28774C17.6848 8.65253 18.1164 8.89291 18.587 8.97081Z" fill="#1C211F"/>
</svg>
