<svg width="24" height="24" viewBox="0 0 24 24" fill="none" xmlns="http://www.w3.org/2000/svg">
<path fill-rule="evenodd" clip-rule="evenodd" d="M4.10051 18.4853L7.68014 14.9056C6.62708 13.551 6 11.8487 6 10C6 5.58172 9.58172 2 14 2C18.4183 2 22 5.58172 22 10C22 14.4183 18.4183 18 14 18C12.1513 18 10.449 17.3729 9.09436 16.3199L5.51472 19.8995C5.1242 20.29 4.49103 20.29 4.10051 19.8995C3.70998 19.509 3.70998 18.8758 4.10051 18.4853ZM8 10C8 13.3137 10.6863 16 14 16C17.3137 16 20 13.3137 20 10C20 6.68629 17.3137 4 14 4C10.6863 4 8 6.68629 8 10Z" fill="#1C211F"/>
</svg>
