<svg width="24" height="24" viewBox="0 0 24 24" fill="none" xmlns="http://www.w3.org/2000/svg">
<path d="M21.1454 7.86439L19.0787 4.48711C18.888 4.19484 18.57 4 18.2203 4H5.37535C5.02561 4 4.67588 4.19484 4.48511 4.48711L2.45027 7.86439C1.49644 9.39066 2.13233 11.469 3.65846 12.1185V19.49C3.65846 20.1395 4.10358 20.6266 4.67588 20.6266H18.9197C19.4603 20.6266 19.9372 20.1395 19.9372 19.49V12.1185C21.4633 11.469 22.0674 9.39066 21.1454 7.86439ZM18.411 19.0679H5.18459V15.9504H18.411V19.0679ZM18.3792 14.3916H5.18459V12.3133C5.94765 12.1834 6.61533 11.7937 7.09225 11.2417C7.66455 11.8911 8.4912 12.3133 9.44503 12.3133C10.3671 12.3133 11.1937 11.8911 11.766 11.2417C12.3383 11.8911 13.1968 12.3133 14.1188 12.3133C15.0726 12.3133 15.8993 11.8911 16.4716 11.2417C16.9485 11.7937 17.6162 12.1834 18.3792 12.3133V14.3916ZM19.9054 10.0726C19.81 10.2999 19.5556 10.6896 19.0469 10.7546C18.9833 10.7546 18.888 10.787 18.8244 10.787C18.3474 10.787 17.9341 10.5597 17.6162 10.2025L16.4716 8.90355L15.3588 10.2025C15.0408 10.5597 14.5957 10.7546 14.1188 10.7546C13.6737 10.7546 13.2286 10.5597 12.9106 10.2025L11.7978 8.90355L10.6532 10.2025C10.3353 10.5597 9.89015 10.7546 9.44503 10.7546C8.96811 10.7546 8.55479 10.5597 8.23684 10.2025L7.09225 8.90355L5.94765 10.2025C5.62971 10.5597 5.21638 10.7546 4.73947 10.7546C4.67588 10.7546 4.58049 10.7546 4.51691 10.7546C4.0082 10.6896 3.75384 10.2999 3.65846 10.0726C3.49949 9.7154 3.4359 9.19582 3.72205 8.70871L5.62971 5.55875H17.9341L19.8418 8.70871C20.1279 9.19582 20.0643 9.7154 19.9054 10.0726Z" fill="#1C211F"/>
</svg>
