<svg width="24" height="24" viewBox="0 0 24 24" fill="none" xmlns="http://www.w3.org/2000/svg">
<path d="M20.5547 6.90625L15.1251 10.3828V7.6875C15.1251 6.98438 14.3047 6.51562 13.6797 6.90625L8.25006 10.3828V3.9375C8.25006 3.42969 7.82037 3 7.31256 3H2.93756C2.39069 3 2.00006 3.42969 2.00006 3.9375V19.5625C2.00006 20.1094 2.39069 20.5 2.93756 20.5H21.0626C21.5704 20.5 22.0001 20.1094 22.0001 19.5625V7.6875C22.0001 6.98438 21.1797 6.51562 20.5547 6.90625ZM20.1251 18.625H3.87506V4.875H6.37506V12.0625C6.37506 12.8047 7.15631 13.2734 7.78131 12.8828L13.2501 9.40625V12.0625C13.2501 12.8047 14.0313 13.2734 14.6563 12.8828L20.1251 9.40625V18.625ZM17.7813 16.75C18.0157 16.75 18.2501 16.5547 18.2501 16.2812V14.7188C18.2501 14.4844 18.0157 14.25 17.7813 14.25H16.2188C15.9454 14.25 15.7501 14.4844 15.7501 14.7188V16.2812C15.7501 16.5547 15.9454 16.75 16.2188 16.75H17.7813ZM12.7813 16.75C13.0157 16.75 13.2501 16.5547 13.2501 16.2812V14.7188C13.2501 14.4844 13.0157 14.25 12.7813 14.25H11.2188C10.9454 14.25 10.7501 14.4844 10.7501 14.7188V16.2812C10.7501 16.5547 10.9454 16.75 11.2188 16.75H12.7813ZM7.78131 16.75C8.01569 16.75 8.25006 16.5547 8.25006 16.2812V14.7188C8.25006 14.4844 8.01569 14.25 7.78131 14.25H6.21881C5.94537 14.25 5.75006 14.4844 5.75006 14.7188V16.2812C5.75006 16.5547 5.94537 16.75 6.21881 16.75H7.78131Z" fill="#1C211F"/>
</svg>
