<svg width="24" height="24" viewBox="0 0 24 24" fill="none" xmlns="http://www.w3.org/2000/svg">
<path fill-rule="evenodd" clip-rule="evenodd" d="M8 10C8 7.79086 9.79086 6 12 6C14.2091 6 16 7.79086 16 10C16 12.2091 14.2091 14 12 14C9.79086 14 8 12.2091 8 10ZM12 8C10.8954 8 10 8.89543 10 10C10 11.1046 10.8954 12 12 12C13.1046 12 14 11.1046 14 10C14 8.89543 13.1046 8 12 8Z" fill="#1C211F"/>
<rect x="17" y="9" width="2" height="2" rx="1" fill="#1C211F"/>
<rect x="5" y="9" width="2" height="2" rx="1" fill="#1C211F"/>
<path fill-rule="evenodd" clip-rule="evenodd" d="M5 5H19C19 6.10457 19.8954 7 21 7V13C19.8954 13 19 13.8954 19 15H5C5 13.8954 4.10457 13 3 13V7C4.10457 7 5 6.10457 5 5ZM1 13.8571V6.14286V6C1 4.34315 2.34315 3 4 3H4.14286H19.8571H20C21.6569 3 23 4.34315 23 6V6.14286V13.8571V14V18C23 19.6569 21.6569 21 20 21H4C2.34315 21 1 19.6569 1 18V14V13.8571ZM4.14286 17H19.8571H20C20.3506 17 20.6872 16.9398 21 16.8293V18C21 18.5523 20.5523 19 20 19H4C3.44772 19 3 18.5523 3 18V16.8293C3.31278 16.9398 3.64936 17 4 17H4.14286Z" fill="#1C211F"/>
</svg>
