<svg width="24" height="25" viewBox="0 0 24 25" fill="none" xmlns="http://www.w3.org/2000/svg">
<path fill-rule="evenodd" clip-rule="evenodd" d="M21.0919 4.20711C21.4824 3.81658 21.4824 3.18342 21.0919 2.79289C20.7014 2.40237 20.0682 2.40237 19.6777 2.79289L2.70711 19.7635C2.31658 20.154 2.31658 20.7871 2.70711 21.1777C3.09763 21.5682 3.7308 21.5682 4.12132 21.1777L21.0919 4.20711ZM8.09591 12.9604C8.03312 12.6789 8 12.3862 8 12.0858C8 9.87896 9.78711 8.08954 11.9931 8.08579C7.77473 8.07113 4 10.2637 4 12.0858C4 12.9813 4.90426 13.9629 6.32683 14.7295L4.86914 16.1872C3.13414 15.1137 2 13.6706 2 12.0858C2 8.77208 6.98429 6.06837 12 6.08579C12.914 6.08896 13.827 6.18019 14.709 6.34733L12.9324 8.12399C12.6421 8.10145 12.3483 8.08854 12.0521 8.08612C12.3343 8.08972 12.6094 8.12254 12.8746 8.1817L8.09591 12.9604ZM17.3979 9.31531L18.8699 7.84332C20.749 8.92743 22 10.4257 22 12.0858C22 15.3995 17.0419 18.0783 12 18.0858C10.9646 18.0873 9.9327 17.9749 8.94656 17.7666L10.6935 16.0197C11.1203 16.0635 11.556 16.0864 11.997 16.0858L11.9985 16.0858C11.5839 16.0856 11.1841 16.0224 10.808 15.9052L12.7891 13.9241C13.2592 13.722 13.6362 13.345 13.8383 12.8749L15.8194 10.8938C15.9368 11.2703 16 11.6707 16 12.0858C16 14.2875 14.2211 16.0738 12.0222 16.0857C16.2669 16.0709 20 13.9014 20 12.0858C20 11.1425 18.9779 10.0996 17.3979 9.31531Z" fill="#5E6160"/>
</svg>
