<svg width="24" height="24" viewBox="0 0 24 24" fill="none" xmlns="http://www.w3.org/2000/svg">
<path d="M12 17C11.4477 17 11 16.5523 11 16V11C11 10.4477 11.4477 10 12 10C12.5523 10 13 10.4477 13 11V16C13 16.5523 12.5523 17 12 17Z" fill="#1C211F"/>
<path d="M12 7C11.4477 7 11 7.44771 11 8C11 8.55229 11.4477 9 12 9C12.5523 9 13 8.55229 13 8C13 7.44771 12.5523 7 12 7Z" fill="#1C211F"/>
<path fill-rule="evenodd" clip-rule="evenodd" d="M22 12C22 6.47715 17.5228 2 12 2C6.47715 2 2 6.47715 2 12C2 17.5228 6.47715 22 12 22C17.5228 22 22 17.5228 22 12ZM4 12C4 7.58172 7.58172 4 12 4C16.4183 4 20 7.58172 20 12C20 16.4183 16.4183 20 12 20C7.58172 20 4 16.4183 4 12Z" fill="#1C211F"/>
</svg>
