<svg width="24" height="24" viewBox="0 0 24 24" fill="none" xmlns="http://www.w3.org/2000/svg">
<path fill-rule="evenodd" clip-rule="evenodd" d="M3.05455 3.86844C4.18317 2.4154 5.91967 1.9981 7.1936 2.00001C7.91164 2.00108 8.45491 2.51316 8.60652 3.12018L9.91961 8.37779C10.0898 9.05938 9.7643 9.76787 9.13653 10.0821L8.22036 10.5406C8.66545 11.917 9.53581 13.0639 10.5353 13.9745C11.4457 14.8039 12.4307 15.4065 13.21 15.779L14.0404 14.6707C14.4019 14.1882 15.0171 13.9696 15.6016 14.1159L20.5137 15.3451C21.3832 15.5627 22.071 16.3715 21.9947 17.3618C21.8528 19.2039 21.2106 20.4905 19.9831 21.2301C18.8607 21.9063 17.424 22 16.0362 22C12.6829 22 5.25261 19.2879 2.60468 10.806C1.60969 7.61884 1.90193 5.35239 3.05455 3.86844ZM4.63079 5.0952C4.04244 5.85267 3.61515 7.34218 4.51041 10.2099C6.854 17.7169 13.3997 20.0014 16.0362 20.0014C17.4359 20.0014 18.3544 19.8787 18.9535 19.5177C19.4395 19.2249 19.8788 18.667 19.9984 17.2763L15.4389 16.1353L14.4279 17.4845C14.1185 17.8975 13.5594 18.0842 13.0422 17.8835C12.0107 17.4833 10.5333 16.6751 9.19141 15.4526C7.84677 14.2276 6.58698 12.5383 6.10836 10.3744C5.9882 9.83116 6.25864 9.2879 6.74144 9.04627L7.8855 8.47368L6.77302 4.0193C5.97223 4.10023 5.15182 4.4244 4.63079 5.0952Z" fill="#1C211F"/>
</svg>
