<svg width="24" height="24" viewBox="0 0 24 24" fill="none" xmlns="http://www.w3.org/2000/svg">
<path fill-rule="evenodd" clip-rule="evenodd" d="M12 7C11.4696 7 10.9609 7.21071 10.5858 7.58579C10.2107 7.96086 10 8.46957 10 9C10 9.53043 10.2107 10.0391 10.5858 10.4142C10.9609 10.7893 11.4696 11 12 11C12.5304 11 13.0391 10.7893 13.4142 10.4142C13.7893 10.0391 14 9.53043 14 9C14 8.46957 13.7893 7.96086 13.4142 7.58579C13.0391 7.21071 12.5304 7 12 7ZM9.17157 6.17157C9.92172 5.42143 10.9391 5 12 5C13.0609 5 14.0783 5.42143 14.8284 6.17157C15.5786 6.92172 16 7.93913 16 9C16 10.0609 15.5786 11.0783 14.8284 11.8284C14.0783 12.5786 13.0609 13 12 13C10.9391 13 9.92172 12.5786 9.17157 11.8284C8.42143 11.0783 8 10.0609 8 9C8 7.93913 8.42143 6.92172 9.17157 6.17157Z" fill="black"/>
<path fill-rule="evenodd" clip-rule="evenodd" d="M12 3C9.61305 3 7.32387 3.94821 5.63604 5.63604C3.94821 7.32387 3 9.61305 3 12C3 14.2037 3.83865 16.3581 5.29064 17.9943C5.65183 17.298 6.13024 16.6573 6.7123 16.1001C8.12184 14.7508 10.0246 14 12 14C13.9754 14 15.8782 14.7508 17.2877 16.1001C17.8698 16.6573 18.3482 17.298 18.7094 17.9943C20.1613 16.3581 21 14.2037 21 12C21 9.61305 20.0518 7.32387 18.364 5.63604C16.6761 3.94821 14.3869 3 12 3ZM17.1474 19.3828C16.8776 18.7024 16.4577 18.0742 15.9047 17.5448C14.8763 16.5603 13.4724 16 12 16C10.5276 16 9.12374 16.5603 8.09531 17.5448C7.5423 18.0742 7.12243 18.7024 6.85263 19.3828C8.35233 20.4284 10.1467 21 12 21C13.8533 21 15.6477 20.4284 17.1474 19.3828ZM4.22183 4.22183C6.28473 2.15893 9.08262 1 12 1C14.9174 1 17.7153 2.15893 19.7782 4.22183C21.8411 6.28473 23 9.08262 23 12C23 15.2816 21.4889 18.4578 18.9478 20.5281C16.9942 22.1198 14.5425 23 12 23C9.45748 23 7.00577 22.1198 5.05218 20.5281C2.5111 18.4578 1 15.2816 1 12C1 9.08262 2.15893 6.28473 4.22183 4.22183Z" fill="black"/>
</svg>
