<svg width="16" height="17" viewBox="0 0 16 17" fill="none" xmlns="http://www.w3.org/2000/svg">
<path fill-rule="evenodd" clip-rule="evenodd" d="M6 1.8335H10C11.1046 1.8335 12 2.72893 12 3.8335V13.1668C12 14.2714 11.1046 15.1668 10 15.1668H6C4.89543 15.1668 4 14.2714 4 13.1668V3.8335C4 2.72893 4.89543 1.8335 6 1.8335ZM6 3.16683C5.63181 3.16683 5.33333 3.46531 5.33333 3.8335V13.1668C5.33333 13.535 5.63181 13.8335 6 13.8335H10C10.3682 13.8335 10.6667 13.535 10.6667 13.1668V3.8335C10.6667 3.46531 10.3682 3.16683 10 3.16683H6ZM8 13.1668C8.36819 13.1668 8.66667 12.8684 8.66667 12.5002C8.66667 12.132 8.36819 11.8335 8 11.8335C7.63181 11.8335 7.33333 12.132 7.33333 12.5002C7.33333 12.8684 7.63181 13.1668 8 13.1668Z" fill="#5E6160"/>
</svg>
