<svg width="40" height="40" viewBox="0 0 40 40" fill="none" xmlns="http://www.w3.org/2000/svg">
<rect width="40" height="40" rx="20" fill="#F9FAFC"/>
<path d="M20 30C14.477 30 10 25.523 10 20C10 14.477 14.477 10 20 10C25.523 10 30 14.477 30 20C30 25.523 25.523 30 20 30ZM20 28C22.1217 28 24.1566 27.1571 25.6569 25.6569C27.1571 24.1566 28 22.1217 28 20C28 17.8783 27.1571 15.8434 25.6569 14.3431C24.1566 12.8429 22.1217 12 20 12C17.8783 12 15.8434 12.8429 14.3431 14.3431C12.8429 15.8434 12 17.8783 12 20C12 22.1217 12.8429 24.1566 14.3431 25.6569C15.8434 27.1571 17.8783 28 20 28ZM23.626 21.746L19.571 24.644C18.666 25.29 17.441 25.033 16.834 24.068C16.6149 23.7171 16.4992 23.3116 16.5 22.898V17.102C16.5 15.942 17.383 15 18.472 15C18.863 15 19.246 15.124 19.571 15.356L23.626 18.254C24.531 18.901 24.772 20.206 24.166 21.171C24.0251 21.3959 23.8417 21.5913 23.626 21.746ZM18.472 17.102V22.898L22.527 20L18.472 17.102Z" fill="#00A970"/>
</svg>
