<svg width="40" height="40" viewBox="0 0 40 40" fill="none" xmlns="http://www.w3.org/2000/svg">
<rect width="40" height="40" rx="8" fill="#F9FAFC"/>
<path fill-rule="evenodd" clip-rule="evenodd" d="M19.3532 10.1644C19.7722 10.0181 20.2284 10.0181 20.6474 10.1644C24.124 11.3775 27.2991 13.2221 30.0324 15.5587C30.964 16.3551 30.4756 17.7718 29.3923 17.9939C29.1198 18.0497 28.8491 18.1103 28.5803 18.1755C28.9115 19.9389 29.0761 21.7316 29.0752 23.5238C29.0748 24.1689 28.6637 24.7191 28.0872 24.9302C27.4092 25.1785 26.7461 25.4572 26.0996 25.7646C26.4293 26.7691 26.8744 27.7405 27.4312 28.6589L27.5563 28.8652C27.7714 29.2199 27.6551 29.6801 27.2966 29.8929C26.9381 30.1058 26.4731 29.9907 26.258 29.636L26.133 29.4298C25.5612 28.4867 25.0959 27.4932 24.7403 26.4668C23.3998 27.2162 22.1419 28.0936 20.9838 29.0823C20.4175 29.5656 19.5832 29.5656 19.0169 29.0823C16.9376 27.3072 14.537 25.8909 11.9135 24.9302C11.3371 24.7191 10.9258 24.169 10.9255 23.5238C10.9246 21.7316 11.0891 19.9389 11.4204 18.1755C11.1515 18.1103 10.8809 18.0497 10.6084 17.9939C9.52508 17.7718 9.03669 16.3551 9.9683 15.5587C12.7016 13.2221 15.8767 11.3775 19.3532 10.1644ZM27.0731 23.1742C26.5767 23.3638 26.0878 23.5685 25.6072 23.7877C25.5748 23.6006 25.5463 23.4127 25.5217 23.2244C25.9024 22.9523 26.1501 22.5093 26.1501 22.009C26.1501 21.4658 25.858 20.9901 25.4207 20.7274C25.4473 20.1899 25.5051 19.6521 25.5947 19.1167C25.9422 18.9807 26.2939 18.8529 26.6494 18.7333C26.9136 20.1981 27.0547 21.6851 27.0731 23.1742ZM23.9065 20.6959C23.9201 20.4052 23.9419 20.1144 23.9721 19.8238C22.8844 20.348 21.8443 20.9538 20.8597 21.6331C20.3425 21.99 19.6582 21.99 19.141 21.6331C17.3745 20.4142 15.4289 19.4321 13.3513 18.7333C13.0871 20.1981 12.9459 21.6851 12.9276 23.1742C15.5193 24.1641 17.9041 25.5652 20.0003 27.2966C21.2956 26.2268 22.701 25.2831 24.1973 24.4846L24.1982 24.4841C24.1236 24.117 24.0625 23.7473 24.0149 23.3757C23.4885 23.1411 23.1221 22.6174 23.1221 22.009C23.1221 21.4434 23.4389 20.9509 23.9065 20.6959ZM20.1802 15.5959L24.1357 17.553C25.1059 17.1381 26.1076 16.7817 27.1363 16.4884C27.3539 16.4263 27.5727 16.3671 27.7927 16.3107C25.4706 14.4977 22.8435 13.0505 20.0003 12.0568C17.1572 13.0505 14.5301 14.4977 12.208 16.3107C12.4279 16.3671 12.6468 16.4263 12.8644 16.4884C15.4355 17.2216 17.8378 18.3485 20.0003 19.7989C20.7726 19.281 21.5754 18.8043 22.4055 18.372L19.5031 16.936C19.1292 16.7509 18.9776 16.301 19.1646 15.9309C19.3515 15.5609 19.8063 15.4109 20.1802 15.5959Z" fill="#00A970"/>
</svg>
