<svg width="40" height="40" viewBox="0 0 40 40" fill="none" xmlns="http://www.w3.org/2000/svg">
<rect width="40" height="40" rx="8" fill="white"/>
<path d="M20 23C21.6569 23 23 21.6569 23 20C23 18.3431 21.6569 17 20 17C18.3431 17 17 18.3431 17 20C17 21.6569 18.3431 23 20 23Z" fill="#00A970"/>
<path fill-rule="evenodd" clip-rule="evenodd" d="M20 11C20.5523 11 21 11.4477 21 12V13.0709C24.0657 13.5094 26.4906 15.9343 26.9291 19H28C28.5523 19 29 19.4477 29 20C29 20.5523 28.5523 21 28 21H26.9291C26.4906 24.0657 24.0657 26.4906 21 26.9291V28C21 28.5523 20.5523 29 20 29C19.4477 29 19 28.5523 19 28V26.9291C15.9343 26.4906 13.5094 24.0657 13.0709 21H12C11.4477 21 11 20.5523 11 20C11 19.4477 11.4477 19 12 19H13.0709C13.5094 15.9343 15.9343 13.5094 19 13.0709V12C19 11.4477 19.4477 11 20 11ZM15 20C15 17.2386 17.2386 15 20 15C22.7614 15 25 17.2386 25 20C25 22.7614 22.7614 25 20 25C17.2386 25 15 22.7614 15 20Z" fill="#00A970"/>
</svg>
