<svg width="56" height="56" viewBox="0 0 56 56" fill="none" xmlns="http://www.w3.org/2000/svg">
<rect width="56" height="56" rx="16" fill="#F9FAFC"/>
<path fill-rule="evenodd" clip-rule="evenodd" d="M17.3334 25.3337C17.3334 19.4426 22.109 14.667 28 14.667C33.8911 14.667 38.6667 19.4426 38.6667 25.3337V26.0003C38.6667 28.4525 37.8714 30.8386 36.4 32.8003L35.0823 34.5573C34.5902 35.2135 34.0521 35.8339 33.4721 36.4138L28 41.8859L22.5279 36.4138C21.948 35.8339 21.4099 35.2135 20.9178 34.5573L19.6 32.8003C18.1287 30.8386 17.3334 28.4525 17.3334 26.0003V25.3337ZM28 17.3337C23.5818 17.3337 20 20.9154 20 25.3337V26.0003C20 27.8755 20.6082 29.7002 21.7334 31.2003L23.0511 32.9573C23.4675 33.5125 23.9228 34.0375 24.4136 34.5282L28 38.1147L31.5865 34.5282C32.0773 34.0375 32.5326 33.5125 32.949 32.9573L34.2667 31.2003C35.3918 29.7002 36 27.8755 36 26.0003V25.3337C36 20.9154 32.4183 17.3337 28 17.3337Z" fill="#00A970"/>
<path fill-rule="evenodd" clip-rule="evenodd" d="M28 22.667C26.5273 22.667 25.3334 23.8609 25.3334 25.3337C25.3334 26.8064 26.5273 28.0003 28 28.0003C29.4728 28.0003 30.6667 26.8064 30.6667 25.3337C30.6667 23.8609 29.4728 22.667 28 22.667ZM22.6667 25.3337C22.6667 22.3881 25.0545 20.0003 28 20.0003C30.9456 20.0003 33.3334 22.3881 33.3334 25.3337C33.3334 28.2792 30.9456 30.667 28 30.667C25.0545 30.667 22.6667 28.2792 22.6667 25.3337Z" fill="#00A970"/>
</svg>
