<svg width="40" height="41" viewBox="0 0 40 41" fill="none" xmlns="http://www.w3.org/2000/svg">
<rect y="0.5" width="40" height="40" rx="8" fill="#F9FAFC"/>
<path d="M23 24.5H17C16.7348 24.5 16.4804 24.6054 16.2929 24.7929C16.1054 24.9804 16 25.2348 16 25.5C16 25.7652 16.1054 26.0196 16.2929 26.2071C16.4804 26.3946 16.7348 26.5 17 26.5H23C23.2652 26.5 23.5196 26.3946 23.7071 26.2071C23.8946 26.0196 24 25.7652 24 25.5C24 25.2348 23.8946 24.9804 23.7071 24.7929C23.5196 24.6054 23.2652 24.5 23 24.5Z" fill="#00A970"/>
<path d="M17 22.5H20C20.2652 22.5 20.5196 22.3946 20.7071 22.2071C20.8946 22.0196 21 21.7652 21 21.5C21 21.2348 20.8946 20.9804 20.7071 20.7929C20.5196 20.6054 20.2652 20.5 20 20.5H17C16.7348 20.5 16.4804 20.6054 16.2929 20.7929C16.1054 20.9804 16 21.2348 16 21.5C16 21.7652 16.1054 22.0196 16.2929 22.2071C16.4804 22.3946 16.7348 22.5 17 22.5Z" fill="#00A970"/>
<path d="M27.74 16.8302L22.3 10.8302C22.2065 10.7266 22.0924 10.6437 21.9649 10.5869C21.8375 10.53 21.6995 10.5005 21.56 10.5002H14.56C14.2277 10.4962 13.898 10.5577 13.5895 10.6812C13.281 10.8047 12.9999 10.9878 12.7622 11.2199C12.5245 11.4521 12.3348 11.7288 12.204 12.0342C12.0732 12.3397 12.0039 12.6679 12 13.0002V28.0002C12.0039 28.3324 12.0732 28.6607 12.204 28.9661C12.3348 29.2716 12.5245 29.5483 12.7622 29.7804C12.9999 30.0126 13.281 30.1956 13.5895 30.3191C13.898 30.4426 14.2277 30.5041 14.56 30.5002H25.44C25.7723 30.5041 26.102 30.4426 26.4105 30.3191C26.719 30.1956 27.0001 30.0126 27.2378 29.7804C27.4755 29.5483 27.6652 29.2716 27.796 28.9661C27.9268 28.6607 27.9961 28.3324 28 28.0002V17.5002C27.9994 17.2523 27.9067 17.0136 27.74 16.8302ZM22 13.5002L24.74 16.5002H22.74C22.6353 16.4939 22.5329 16.4667 22.4387 16.4204C22.3446 16.3741 22.2607 16.3095 22.1918 16.2303C22.1229 16.1512 22.0704 16.0592 22.0375 15.9596C22.0046 15.8599 21.9918 15.7548 22 15.6502V13.5002ZM25.44 28.5002H14.56C14.4904 28.5042 14.4206 28.4945 14.3548 28.4715C14.2889 28.4486 14.2282 28.4129 14.1762 28.3664C14.1242 28.32 14.0818 28.2637 14.0516 28.2009C14.0214 28.138 14.0038 28.0698 14 28.0002V13.0002C14.0038 12.9305 14.0214 12.8623 14.0516 12.7995C14.0818 12.7366 14.1242 12.6804 14.1762 12.6339C14.2282 12.5875 14.2889 12.5518 14.3548 12.5288C14.4206 12.5059 14.4904 12.4961 14.56 12.5002H20V15.6502C19.9839 16.3868 20.2598 17.0999 20.7675 17.6339C21.2752 18.1678 21.9735 18.4792 22.71 18.5002H26V28.0002C25.9962 28.0698 25.9786 28.138 25.9484 28.2009C25.9182 28.2637 25.8758 28.32 25.8238 28.3664C25.7718 28.4129 25.7111 28.4486 25.6452 28.4715C25.5794 28.4945 25.5096 28.5042 25.44 28.5002Z" fill="#00A970"/>
</svg>
