<svg width="40" height="41" viewBox="0 0 40 41" fill="none" xmlns="http://www.w3.org/2000/svg">
<rect y="0.5" width="40" height="40" rx="8" fill="#F9FAFC"/>
<path fill-rule="evenodd" clip-rule="evenodd" d="M16 18.5C16 16.2909 17.7909 14.5 20 14.5C22.2091 14.5 24 16.2909 24 18.5C24 20.7091 22.2091 22.5 20 22.5C17.7909 22.5 16 20.7091 16 18.5ZM20 16.5C18.8954 16.5 18 17.3954 18 18.5C18 19.6046 18.8954 20.5 20 20.5C21.1046 20.5 22 19.6046 22 18.5C22 17.3954 21.1046 16.5 20 16.5Z" fill="#00A970"/>
<rect x="25" y="17.5" width="2" height="2" rx="1" fill="#00A970"/>
<rect x="13" y="17.5" width="2" height="2" rx="1" fill="#00A970"/>
<path fill-rule="evenodd" clip-rule="evenodd" d="M13 13.5H27C27 14.6046 27.8954 15.5 29 15.5V21.5C27.8954 21.5 27 22.3954 27 23.5H13C13 22.3954 12.1046 21.5 11 21.5V15.5C12.1046 15.5 13 14.6046 13 13.5ZM9 22.3571V14.6429V14.5C9 12.8431 10.3431 11.5 12 11.5H12.1429H27.8571H28C29.6569 11.5 31 12.8431 31 14.5V14.6429V22.3571V22.5V26.5C31 28.1569 29.6569 29.5 28 29.5H12C10.3431 29.5 9 28.1569 9 26.5V22.5V22.3571ZM12.1429 25.5H27.8571H28C28.3506 25.5 28.6872 25.4398 29 25.3293V26.5C29 27.0523 28.5523 27.5 28 27.5H12C11.4477 27.5 11 27.0523 11 26.5V25.3293C11.3128 25.4398 11.6494 25.5 12 25.5H12.1429Z" fill="#00A970"/>
</svg>
