<svg width="40" height="41" viewBox="0 0 40 41" fill="none" xmlns="http://www.w3.org/2000/svg">
<rect y="0.5" width="40" height="39.9998" rx="8" fill="#F9FAFC"/>
<path d="M28.4275 18.4707L28.4275 18.4707C29.6325 16.6599 30.3498 14.2942 30.4743 11.7384H28.2308C27.9693 14.9221 27.2167 17.8672 26.0437 20.2131C25.9027 20.495 25.7569 20.7654 25.6067 21.0242C26.6477 20.5566 27.6154 19.6914 28.4275 18.4707ZM11.5725 18.4707L11.4893 18.5261L11.5725 18.4707C12.3846 19.6914 13.3523 20.5566 14.3933 21.0242C14.2431 20.7654 14.0973 20.495 13.9563 20.2131C12.7833 17.8672 12.0308 14.9221 11.7692 11.7384H9.52573C9.65017 14.2942 10.3675 16.6599 11.5725 18.4707ZM24.607 19.4947L24.6965 19.5394L24.607 19.4947C25.879 16.9509 26.6213 13.6075 26.7174 10.0063H13.2826C13.3789 13.6075 14.1211 16.9511 15.393 19.4947C15.8195 20.3477 16.2853 21.0708 16.7787 21.6575C16.8138 21.6915 16.8459 21.7289 16.8743 21.7691C17.3702 22.3371 17.8919 22.7664 18.4275 23.0505C18.4615 23.0648 18.4937 23.0815 18.5239 23.0994C19.0074 23.3393 19.5018 23.4624 20 23.4624C20.498 23.4624 20.9921 23.3394 21.4754 23.0998C21.5063 23.0814 21.5386 23.0647 21.5727 23.0503C22.1083 22.7663 22.63 22.3368 23.126 21.7688C23.1543 21.7289 23.186 21.6917 23.221 21.6576C23.7146 21.0709 24.1805 20.3478 24.607 19.4947ZM8.70312 10.1322H11.6798C11.6706 9.8241 11.6656 9.51432 11.6656 9.20312C11.6656 8.75951 12.0253 8.4 12.4687 8.4H27.5313C27.9747 8.4 28.3344 8.75951 28.3344 9.20312C28.3344 9.51432 28.3294 9.8241 28.3202 10.1322H31.2969C31.7405 10.1322 32.1 10.4917 32.1 10.9353C32.1 14.1022 31.2725 17.0946 29.7648 19.3604C28.2836 21.5868 26.3048 22.8817 24.1548 23.0217C23.6897 23.5231 23.1984 23.9371 22.686 24.2586V27.228H23.7656C25.2468 27.228 26.4516 28.4329 26.4516 29.914V30.9951C26.8719 31.0209 27.2047 31.3701 27.2047 31.7967C27.2047 32.2403 26.8451 32.5998 26.4016 32.5998H13.5984C13.1549 32.5998 12.7953 32.2403 12.7953 31.7967C12.7953 31.3701 13.1281 31.0209 13.5484 30.9951V29.914C13.5484 28.4329 14.7532 27.228 16.2344 27.228H17.314V24.2586C16.8016 23.9372 16.3101 23.5231 15.8451 23.0217C13.6952 22.8817 11.7164 21.5868 10.235 19.3605C8.72734 17.0945 7.9 14.1021 7.9 10.9353C7.9 10.4917 8.25953 10.1322 8.70312 10.1322ZM15.1547 29.914V30.9937H24.8453V29.914C24.8453 29.3188 24.3609 28.8343 23.7656 28.8343H16.2344C15.6391 28.8343 15.1547 29.3188 15.1547 29.914ZM21.0797 27.228V24.942C20.7255 25.0254 20.3651 25.0687 20 25.0687C19.6349 25.0687 19.2745 25.0254 18.9203 24.942V27.228H21.0797Z" fill="#00A970" stroke="#00A970" stroke-width="0.2"/>
</svg>
