<svg width="414" height="238" viewBox="0 0 414 238" fill="none" xmlns="http://www.w3.org/2000/svg">
<g clip-path="url(#clip0_19139_52260)">
<path d="M9.03308 33.7389C9.4213 34.2317 9.69798 34.8017 9.84427 35.4102C9.99057 36.0187 10.003 36.6514 9.88084 37.2651C13.2525 36.8001 16.5372 35.8467 19.6301 34.4354C19.7159 32.9257 19.3875 31.4211 18.68 30.082C15.841 32.1161 12.5151 33.3769 9.03308 33.7389Z" fill="#E8234B"/>
<path d="M370.501 102.669C371.817 103.815 373.307 104.004 375.719 103.685C375.557 100.462 376.142 97.2448 377.429 94.2815C375.675 94.4121 374.506 93.9478 372.197 92.5547C370.938 95.7749 370.361 99.2178 370.501 102.669Z" fill="#FFB500"/>
<path d="M397.498 31.1565C398.243 32.6076 399.5 33.2896 401.707 33.8411C402.687 30.9652 404.323 28.353 406.487 26.2081C404.805 25.6228 403.392 24.4527 402.511 22.9141C400.286 25.2892 398.579 28.0954 397.498 31.1565Z" fill="#FFB500"/>
<path d="M146.297 9.79646C145.618 9.75824 144.939 9.86838 144.308 10.1191C143.677 10.3698 143.108 10.7551 142.643 11.2476C143.265 13.398 143.623 15.6148 143.71 17.8502C144.376 17.5392 145.11 17.3995 145.844 17.4439C145.604 14.8867 145.757 12.3081 146.297 9.79646Z" fill="#E8234B"/>
<path d="M70.028 11.0156C67.8821 13.9387 66.2739 17.2155 65.2776 20.6947C67.4353 21.2804 69.7119 21.2804 71.8697 20.6947C72.0158 18.4164 72.9805 16.9072 74.676 14.716C73.6732 14.4803 72.7358 14.026 71.9319 13.386C71.1279 12.7459 70.4776 11.9362 70.028 11.0156Z" fill="#FFB500"/>
<path d="M7.54216 99.9258C6.45305 102.908 6.2054 106.13 6.82595 109.242C8.63704 109.977 10.6436 110.089 12.5264 109.561C11.875 106.5 12.1444 103.316 13.3011 100.405C10.8894 101.087 9.35462 101.145 7.54216 99.9258Z" fill="#E8234B"/>
<path d="M394.18 62.4696C394.717 62.1373 395.321 61.9245 395.949 61.8456C395.177 60.8713 394.552 59.7911 394.092 58.6386C393.471 58.5577 392.841 58.7076 392.324 59.0595C392.81 60.2623 393.433 61.4063 394.18 62.4696Z" fill="#00A970"/>
<path d="M411.047 137.074C408.987 138.395 406.385 138.874 400.524 137.756C400.462 140.438 401.272 143.069 402.833 145.259C406.634 145.674 410.479 145.115 414 143.633C412.331 141.819 411.295 139.519 411.047 137.074Z" fill="#E8234B"/>
<path d="M21.8518 181.553C21.6043 182.135 21.4978 182.766 21.541 183.396C21.5841 184.026 21.7757 184.637 22.1003 185.181C24.2309 184.497 26.4913 184.308 28.707 184.629C28.3227 183.392 28.3953 182.06 28.9116 180.871C26.5362 180.608 24.1315 180.84 21.8518 181.553Z" fill="#E8234B"/>
<path d="M351.909 57.074C352.993 57.4217 354.141 57.5304 355.272 57.3926C356.403 57.2548 357.49 56.8737 358.457 56.2759C358.347 52.5145 358.69 48.7535 359.48 45.0731C358.268 45.3142 357.014 45.2392 355.841 44.8555C355.158 49.1019 353.833 53.2214 351.909 57.074Z" fill="#E8234B"/>
<path d="M250.777 64.4144C248.579 64.2123 246.374 64.7214 244.492 65.8655C244.125 67.3712 243.534 68.8141 242.738 70.1463C244.199 69.8126 245.149 70.335 246.655 71.9022C247.609 69.2003 249.002 66.6711 250.777 64.4144Z" fill="#00A970"/>
<path d="M86.8225 140.324C86.7803 140.806 86.8644 141.29 87.0668 141.73C87.2691 142.17 87.5828 142.551 87.9772 142.834C88.9135 142.742 89.7926 142.344 90.4767 141.703C90.2199 140.549 90.2959 139.347 90.6959 138.234C89.5588 139.181 88.2416 139.892 86.8225 140.324Z" fill="#00A970"/>
<path d="M216.852 22.9419C218.407 20.7772 219.574 18.3617 220.301 15.8023C218.713 15.368 217.036 15.368 215.448 15.8023C215.271 17.4354 214.557 18.9651 213.417 20.1557C214.162 20.3373 214.857 20.6817 215.451 21.1636C216.045 21.6456 216.524 22.2531 216.852 22.9419Z" fill="#E8234B"/>
<path d="M315.981 57.2188C314.829 59.2326 314.253 61.5207 314.315 63.8359C315.523 64.5955 316.957 64.9231 318.378 64.7646C318.293 62.5001 318.877 60.2604 320.059 58.3216C319.341 58.4938 318.59 58.483 317.877 58.2902C317.165 58.0974 316.512 57.7288 315.981 57.2188Z" fill="#00A970"/>
<path d="M381.654 146.681C382.102 146.614 382.559 146.643 382.995 146.766C383.431 146.888 383.836 147.102 384.182 147.392C385.063 145.112 385.604 142.716 385.79 140.281C384.86 139.702 383.789 139.386 382.691 139.367C382.987 141.853 382.629 144.373 381.654 146.681Z" fill="#E8234B"/>
<path d="M227.215 50.3242C226.233 50.3461 225.285 50.682 224.511 51.282C224.427 51.9639 224.24 52.6293 223.955 53.2555C224.598 53.0378 225.037 53.2555 225.782 53.836C226.068 52.5969 226.551 51.4112 227.215 50.3242Z" fill="#00A970"/>
<path d="M255.132 2.11865C253.247 2.59752 251.157 2.3073 247.02 0C246.293 2.00886 246.237 4.19672 246.859 6.23986C249.626 7.49673 252.669 8.03596 255.702 7.80708C254.901 6.02125 254.701 4.02629 255.132 2.11865Z" fill="#00A970"/>
<path d="M22.3488 88.1718C22.4973 87.3081 22.9048 86.5091 23.5181 85.879C23.3664 85.8098 23.2301 85.7113 23.1172 85.5892C23.0042 85.4671 22.9169 85.3239 22.8603 85.168C22.1577 85.8326 21.6522 86.6758 21.3987 87.6059C21.6574 87.8771 21.986 88.0728 22.3488 88.1718Z" fill="#FFB500"/>
<path d="M98.6473 80.4381C99.3327 80.6615 100.077 80.6253 100.737 80.3365C100.164 78.1651 99.9905 75.9085 100.226 73.6758C99.5589 73.8301 98.8592 73.7586 98.238 73.4727C97.8785 75.7972 98.018 78.1708 98.6473 80.4381Z" fill="#E8234B"/>
<path d="M7.55676 151.191C7.98389 152.046 8.67536 152.743 9.53 153.18C10.1749 152.959 10.8507 152.842 11.5325 152.831C11.0647 152.352 11.0355 151.902 11.284 150.988C10.0598 151.248 8.80225 151.317 7.55676 151.191Z" fill="#00A970"/>
<path d="M281.545 80.4081C280.771 79.8724 279.889 79.5094 278.961 79.3441C278.032 79.1787 277.079 79.215 276.166 79.4503C275.333 82.4518 274.135 85.3415 272.599 88.0555C273.619 88.1673 274.594 88.5315 275.435 89.1149C277.019 85.9243 279.079 82.989 281.545 80.4081Z" fill="#00A970"/>
<path d="M31.2357 116.105C29.451 117.143 27.9893 118.65 27.0115 120.459C27.5899 121.545 28.5226 122.405 29.6571 122.897C30.6108 121.121 32.0696 119.662 33.852 118.703C33.2323 118.521 32.6682 118.188 32.2112 117.734C31.7543 117.281 31.4189 116.721 31.2357 116.105Z" fill="#FFB500"/>
<path d="M354.35 153.964C354.632 155.695 354.257 157.469 353.297 158.941C356.055 159.165 358.832 158.929 361.512 158.245C361.609 156.607 361.344 154.967 360.737 153.441C358.675 154.09 356.491 154.268 354.35 153.964Z" fill="#00A970"/>
<path d="M171.16 70.0912C170.739 70.9875 170.562 71.9777 170.647 72.963C170.732 73.9483 171.075 74.8944 171.643 75.7071C173.51 76.169 175.48 76.0006 177.241 75.2282C177.534 72.827 178.507 70.5576 180.047 68.6836C177.212 69.7474 174.188 70.2263 171.16 70.0912Z" fill="#E8234B"/>
<path d="M58.9926 68.3336C59.5626 64.7494 60.0742 62.9499 61.9159 60.5411C61.4022 60.3764 60.9281 60.1084 60.5232 59.7539C60.1184 59.3994 59.7914 58.9659 59.5626 58.4805C57.4386 60.8323 56.0209 63.7279 55.47 66.839C56.4841 67.6481 57.7027 68.1651 58.9926 68.3336Z" fill="#00A970"/>
<path d="M289.92 18.2571C290.208 18.6575 290.406 19.1152 290.499 19.5986C290.593 20.0821 290.58 20.5799 290.461 21.0578C293.122 20.7977 295.731 20.1574 298.208 19.1568C298.332 17.9728 298.125 16.7775 297.608 15.7031C295.316 17.21 292.664 18.0908 289.92 18.2571Z" fill="#E8234B"/>
<path d="M377.634 193.626C377.447 192.629 376.933 191.72 376.172 191.043C375.528 191.885 374.625 192.496 373.6 192.784C373.729 193.73 374.052 194.639 374.55 195.454C375.451 194.656 376.498 194.035 377.634 193.626Z" fill="#00A970"/>
<path d="M355.957 118.818C355.23 117.994 354.329 117.338 353.319 116.897C352.309 116.456 351.214 116.24 350.111 116.264C348.309 119.442 346.136 122.399 343.636 125.072C344.76 125.478 345.765 126.156 346.559 127.045C349.253 123.845 352.422 121.071 355.957 118.818Z" fill="#FFB500"/>
<path d="M331.095 86.2708C332.762 87.2892 334.713 87.7519 336.664 87.5913C337.546 86.5311 338.586 85.6111 339.748 84.8632C338.432 84.5439 337.891 83.7748 337.321 81.9609C335.494 83.7218 333.391 85.1773 331.095 86.2708Z" fill="#00A970"/>
<path d="M52.0789 156.999C52.8652 155.816 53.4343 154.505 53.7598 153.125C52.9037 152.929 52.0105 152.964 51.1726 153.226C51.0845 154.093 50.7152 154.908 50.1202 155.548C50.5377 155.623 50.9321 155.792 51.272 156.044C51.612 156.296 51.8882 156.623 52.0789 156.999Z" fill="#FFB500"/>
<path d="M130.745 28.8911C130.316 28.5662 129.963 28.1527 129.711 27.6792C129.459 27.2057 129.313 26.6834 129.284 26.1484C126.595 27.2324 124.079 28.6989 121.815 30.5018C122.061 31.7676 122.653 32.9421 123.525 33.8975C125.449 31.6299 127.939 29.9036 130.745 28.8911Z" fill="#00A970"/>
<path d="M383.027 4.12109C382.729 4.38235 382.504 4.71674 382.376 5.09099C382.248 5.46524 382.22 5.86629 382.297 6.25426C382.903 6.72168 383.648 6.97679 384.416 6.97982C384.911 6.15179 385.63 5.47814 386.492 5.03531C385.286 4.96813 384.107 4.65703 383.027 4.12109Z" fill="#E8234B"/>
<path d="M1.5805e-05 165.805C-0.0595196 167.446 0.411717 169.063 1.34474 170.419C2.49983 170.613 3.61856 170.98 4.66271 171.508C4.35576 170.405 4.6627 169.694 5.81741 168.504C3.74484 167.92 1.78053 167.009 1.5805e-05 165.805Z" fill="#00A970"/>
<path d="M371.904 188.328C371.653 189.36 371.745 190.444 372.167 191.419C373.157 190.881 374.293 190.668 375.412 190.81C375.685 189.838 375.76 188.821 375.631 187.82C374.433 188.225 373.168 188.397 371.904 188.328Z" fill="#00A970"/>
</g>
<defs>
<clipPath id="clip0_19139_52260">
<rect width="414" height="238" fill="white"/>
</clipPath>
</defs>
</svg>
