<svg width="24" height="24" viewBox="0 0 24 24" fill="none" xmlns="http://www.w3.org/2000/svg">
<path d="M20.4275 9.97073L20.4275 9.97072C21.6325 8.15989 22.3498 5.79419 22.4743 3.23843H20.2308C19.9693 6.42206 19.2167 9.36724 18.0437 11.7131C17.9027 11.995 17.7569 12.2654 17.6067 12.5242C18.6477 12.0566 19.6154 11.1914 20.4275 9.97073ZM3.57251 9.97072L3.48926 10.0261L3.57252 9.97073C4.38463 11.1914 5.35228 12.0566 6.39327 12.5242C6.2431 12.2654 6.09727 11.995 5.95634 11.7131C4.7833 9.36724 4.03085 6.42205 3.76925 3.23843H1.52573C1.65017 5.79419 2.3675 8.15989 3.57251 9.97072ZM16.607 10.9947L16.6965 11.0394L16.607 10.9947C17.879 8.45087 18.6213 5.10754 18.7174 1.50625H5.28259C5.37892 5.10754 6.12114 8.45105 7.39297 10.9947C7.81947 11.8477 8.28533 12.5708 8.77872 13.1575C8.81383 13.1915 8.84592 13.2289 8.87431 13.2691C9.37021 13.8371 9.89188 14.2664 10.4275 14.5505C10.4615 14.5648 10.4937 14.5815 10.5239 14.5994C11.0074 14.8393 11.5018 14.9624 12 14.9624C12.498 14.9624 12.9921 14.8394 13.4754 14.5998C13.5063 14.5814 13.5386 14.5647 13.5727 14.5503C14.1083 14.2663 14.63 13.8368 15.126 13.2688C15.1543 13.2289 15.186 13.1917 15.221 13.1576C15.7146 12.5709 16.1805 11.8478 16.607 10.9947ZM0.703125 1.63218H3.67978C3.67062 1.3241 3.66556 1.01432 3.66556 0.703125C3.66556 0.259513 4.02529 -0.1 4.46869 -0.1H19.5313C19.9747 -0.1 20.3344 0.259513 20.3344 0.703125C20.3344 1.01432 20.3294 1.3241 20.3202 1.63218H23.2969C23.7405 1.63218 24.1 1.99171 24.1 2.4353C24.1 5.60215 23.2725 8.59455 21.7648 10.8604C20.2836 13.0868 18.3048 14.3817 16.1548 14.5217C15.6897 15.0231 15.1984 15.4371 14.686 15.7586V18.728H15.7656C17.2468 18.728 18.4516 19.9329 18.4516 21.414V22.4951C18.8719 22.5209 19.2047 22.8701 19.2047 23.2967C19.2047 23.7403 18.8451 24.0998 18.4016 24.0998H5.59845C5.15485 24.0998 4.79532 23.7403 4.79532 23.2967C4.79532 22.8701 5.12813 22.5209 5.54844 22.4951V21.414C5.54844 19.9329 6.75318 18.728 8.23444 18.728H9.314V15.7586C8.80158 15.4372 8.31011 15.0231 7.84506 14.5217C5.69523 14.3817 3.71644 13.0868 2.23504 10.8605C0.727337 8.59455 -0.1 5.60215 -0.1 2.4353C-0.1 1.99171 0.259529 1.63218 0.703125 1.63218ZM7.15469 21.414V22.4937H16.8453V21.414C16.8453 20.8188 16.3609 20.3343 15.7656 20.3343H8.23444C7.6391 20.3343 7.15469 20.8188 7.15469 21.414ZM13.0797 18.728V16.442C12.7255 16.5254 12.3651 16.5687 12 16.5687C11.6349 16.5687 11.2745 16.5254 10.9203 16.442V18.728H13.0797Z" fill="#00A970" stroke="#00A970" stroke-width="0.2"/>
</svg>
